<?xml version="1.0" standalone="no"?>
<!DOCTYPE svg PUBLIC "-//W3C//DTD SVG 20010904//EN"
 "http://www.w3.org/TR/2001/REC-SVG-20010904/DTD/svg10.dtd">
<svg version="1.0" xmlns="http://www.w3.org/2000/svg"
 width="340.000000pt" height="340.000000pt" viewBox="0 0 340.000000 340.000000"
 preserveAspectRatio="xMidYMid meet">
<metadata>
Created by potrace 1.14, written by Peter Selinger 2001-2017
</metadata>
<g transform="translate(0.000000,340.000000) scale(0.100000,-0.100000)"
fill="#000000" stroke="none">
<path d="M1599 3367 c-2 -3 -38 -7 -80 -10 -167 -13 -365 -70 -544 -157 -458
-223 -784 -648 -887 -1155 -27 -138 -34 -393 -13 -535 46 -311 172 -592 369
-825 105 -124 254 -255 364 -319 8 -5 21 13 42 59 17 37 39 80 50 95 11 15 20
30 20 33 0 3 -21 19 -47 36 -141 90 -302 269 -403 445 -132 230 -190 462 -185
731 11 526 305 993 770 1225 290 144 560 183 881 129 190 -32 377 -107 550
-221 44 -29 84 -54 90 -54 5 -1 36 -5 69 -9 66 -7 236 -42 272 -56 42 -16 25
10 -69 104 -249 247 -546 401 -894 462 -83 14 -345 30 -355 22z"/>
<path d="M2347 2675 c-1 -1 -43 -5 -93 -8 -375 -25 -778 -220 -1072 -519 -267
-270 -392 -590 -394 -1003 0 -163 18 -301 53 -410 12 -36 23 -64 24 -63 2 2 5
41 8 88 52 777 643 1435 1507 1679 114 32 269 65 276 59 2 -3 -22 -12 -54 -22
-138 -43 -512 -217 -563 -262 -8 -8 -19 -14 -23 -14 -14 0 -167 -112 -256
-186 -323 -270 -545 -625 -660 -1056 -34 -130 -60 -258 -52 -258 2 0 32 17 66
38 85 54 222 119 415 197 516 209 639 330 816 805 76 205 132 323 195 415 143
205 326 301 560 290 86 -3 112 -8 175 -30 41 -14 -116 74 -191 108 -162 72
-327 118 -494 136 -89 10 -237 20 -243 16z"/>
<path d="M3053 2405 c-116 -25 -207 -78 -302 -174 -112 -116 -193 -265 -306
-566 -206 -553 -332 -679 -905 -913 -210 -86 -251 -106 -320 -161 -161 -129
-243 -269 -285 -491 l-7 -35 31 48 c17 27 41 58 54 71 47 47 49 47 114 22 79
-31 238 -72 338 -87 103 -15 347 -15 450 0 723 108 1278 662 1390 1386 27 177
11 452 -38 650 -9 38 -55 170 -76 218 -23 54 -30 55 -138 32z m-12 -275 c52
-172 69 -410 43 -593 -7 -54 -16 -102 -18 -106 -3 -4 -8 -21 -10 -38 -20 -109
-107 -307 -194 -437 -216 -326 -579 -559 -957 -614 -118 -17 -413 -7 -515 17
l-35 8 26 11 c15 6 46 16 70 22 573 150 801 269 948 495 94 144 141 283 211
634 48 238 70 325 113 429 54 137 132 258 208 326 l42 39 24 -64 c14 -35 34
-93 44 -129z"/>
</g>
</svg>
